HIERARCHY
ROOT SpineBase
{
  OFFSET 0.000000 0.000000 0.000000
  CHANNELS 6 Xposition Yposition Zposition Zrotation Xrotation Yrotation
  JOINT SpineMid
  {
    OFFSET 0.000000 31.007324 0.000000
    CHANNELS 3 Zrotation Xrotation Yrotation
    JOINT SpineShoulder
    {
      OFFSET -0.009688 22.937144 -0.818722
      CHANNELS 3 Zrotation Xrotation Yrotation
      JOINT Neck
      {
        OFFSET -0.011063 7.552872 -0.610964
        CHANNELS 3 Zrotation Xrotation Yrotation
        JOINT Head
        {
          OFFSET -1.649391 15.014323 -2.466782
          CHANNELS 3 Zrotation Xrotation Yrotation
          End Site
          {
            OFFSET 0 0 0
          }
        }
      }
      JOINT ShoulderLeft
      {
        OFFSET -17.486945 -1.372271 8.551226
        CHANNELS 3 Zrotation Xrotation Yrotation
        JOINT ElbowLeft
        {
          OFFSET -2.040665 -23.724100 -1.864606
          CHANNELS 3 Zrotation Xrotation Yrotation
          JOINT WristLeft
          {
            OFFSET 5.619418 -18.897450 -21.078867
            CHANNELS 3 Zrotation Xrotation Yrotation
            JOINT HandLeft
            {
              OFFSET 1.224398 -6.117085 4.512994
              CHANNELS 3 Zrotation Xrotation Yrotation
              JOINT HandTipLeft
              {
                OFFSET -2.835752 -7.617455 -1.966613
                CHANNELS 3 Zrotation Xrotation Yrotation
                End Site
                {
                  OFFSET 0 0 0
                }
              }
              JOINT ThumbLeft
              {
                OFFSET -5.183854 -1.446646 -0.689587
                CHANNELS 3 Zrotation Xrotation Yrotation
                End Site
                {
                  OFFSET 0 0 0
                }
              }
            }
          }
        }
      }
      JOINT ShoulderRight
      {
        OFFSET 15.705934 -5.141960 -6.522342
        CHANNELS 3 Zrotation Xrotation Yrotation
        JOINT ElbowRight
        {
          OFFSET 4.569188 -27.509757 0.581931
          CHANNELS 3 Zrotation Xrotation Yrotation
          JOINT WristRight
          {
            OFFSET -2.067434 -25.646800 -2.235344
            CHANNELS 3 Zrotation Xrotation Yrotation
            JOINT HandRight
            {
              OFFSET -2.018945 -8.192596 0.201687
              CHANNELS 3 Zrotation Xrotation Yrotation
              JOINT HandTipRight
              {
                OFFSET -0.530688 -6.887809 0.214129
                CHANNELS 3 Zrotation Xrotation Yrotation
                End Site
                {
                  OFFSET 0 0 0
                }
              }
              JOINT ThumbRight
              {
                OFFSET -4.042881 -1.208634 -2.406955
                CHANNELS 3 Zrotation Xrotation Yrotation
                End Site
                {
                  OFFSET 0 0 0
                }
              }
            }
          }
        }
      }
    }
  }
  JOINT HipLeft
  {
    OFFSET -8.209023 -0.299558 -1.235516
    CHANNELS 3 Zrotation Xrotation Yrotation
    JOINT KneeLeft
    {
      OFFSET -1.470607 -34.782903 12.938339
      CHANNELS 3 Zrotation Xrotation Yrotation
      JOINT AnkleLeft
      {
        OFFSET -2.724517 -39.570568 16.269161
        CHANNELS 3 Zrotation Xrotation Yrotation
        JOINT FootLeft
        {
          OFFSET -2.123475 -7.293875 -9.440066
          CHANNELS 3 Zrotation Xrotation Yrotation
          End Site
          {
            OFFSET 0 0 0
          }
        }
      }
    }
  }
  JOINT HipRight
  {
    OFFSET 7.919104 0.790195 -6.149285
    CHANNELS 3 Zrotation Xrotation Yrotation
    JOINT KneeRight
    {
      OFFSET -5.541508 -36.528609 5.436044
      CHANNELS 3 Zrotation Xrotation Yrotation
      JOINT AnkleRight
      {
        OFFSET 2.172921 -40.440254 15.956520
        CHANNELS 3 Zrotation Xrotation Yrotation
        JOINT FootRight
        {
          OFFSET -2.362697 -8.855660 -5.347374
          CHANNELS 3 Zrotation Xrotation Yrotation
          End Site
          {
            OFFSET 0 0 0
          }
        }
      }
    }
  }
}
MOTION
Frames: 5
Frame Time: 0.033333
10.876893 76.919684 369.008461 2.326350 0.888417 5.369170 0.767939 0.431800 -5.285144 -0.141122 -0.025521 0.127004 6.502629 15.053896 1.985798 0.000000 0.000000 0.000000 2.137603 1.592755 -0.935630 -2.255977 8.136975 0.521244 -42.232285 74.516684 57.724979 -40.449891 -59.664954 -60.639609 0.000000 0.000000 0.000000 0.000000 0.000000 0.000000 23.621388 -4.672902 1.133768 -27.247892 0.495280 1.121752 7.814647 -10.076157 3.536901 -3.491328 21.749254 -4.133197 0.000000 0.000000 0.000000 0.000000 0.000000 0.000000 11.063784 -1.043861 -0.178128 -16.812059 0.761861 -6.350807 -21.462407 12.158907 26.770201 0.000000 0.000000 0.000000 -33.913245 5.963090 -9.182826 31.420189 -17.625097 3.697282 -12.051125 19.329401 12.405336 0.000000 0.000000 0.000000
7.965136 78.577708 368.603648 2.169038 0.948656 2.693820 0.446161 -0.063604 -2.613155 -0.185134 0.251853 0.097946 -3.090262 14.685070 1.528257 0.000000 0.000000 0.000000 2.644014 -2.268321 -0.377325 0.316867 22.173422 -0.407921 -43.473472 73.194582 67.883523 -66.850465 -60.260636 -88.715673 0.000000 0.000000 0.000000 0.000000 0.000000 0.000000 18.813312 -5.912760 0.747821 -18.104514 1.062432 1.092080 3.186105 -10.667949 4.200796 -4.292976 23.373329 -4.062014 0.000000 0.000000 0.000000 0.000000 0.000000 0.000000 9.863548 -0.844641 1.955996 -14.853492 -2.312939 -5.355551 -16.093582 16.919306 19.626370 0.000000 0.000000 0.000000 -30.553146 6.332592 -6.457877 24.299729 -20.721278 1.750589 -4.101694 21.040975 9.479281 0.000000 0.000000 0.000000
5.040989 80.911479 369.482143 2.203533 -0.048898 1.443511 0.629167 -0.320531 -1.333974 -0.899724 0.537968 0.049673 -13.975025 13.986430 0.905476 0.000000 0.000000 0.000000 5.208634 -5.859174 0.143610 2.343022 39.381049 -2.553818 -26.315237 64.611779 67.423684 -80.014495 -47.108415 -101.851839 0.000000 0.000000 0.000000 0.000000 0.000000 0.000000 17.978924 0.910486 0.313015 -15.818571 -8.072602 -0.231051 1.628939 -6.271070 3.494992 -6.040267 25.624398 -3.521367 0.000000 0.000000 0.000000 0.000000 0.000000 0.000000 4.894702 -1.421280 1.349149 -8.041325 1.157410 -2.932681 -11.962044 24.051848 9.870435 0.000000 0.000000 0.000000 -21.317536 10.242641 -4.034953 10.847904 -24.218662 -1.387177 8.898780 28.556241 -0.156080 0.000000 0.000000 0.000000
0.499317 84.485908 371.853606 0.785033 -2.276237 0.980634 0.382530 -0.571307 -0.926276 -0.353710 1.336320 0.022658 -22.133889 11.992512 0.115901 0.000000 0.000000 0.000000 5.716403 -9.804154 0.893524 10.678018 56.231590 -9.034299 14.312002 38.391702 84.763518 -60.531132 6.706226 -93.140932 0.000000 0.000000 0.000000 0.000000 0.000000 0.000000 12.596372 7.258781 0.154438 -8.600533 -15.472085 -0.642068 4.385362 3.016890 0.953725 -11.451183 22.363587 -2.068337 0.000000 0.000000 0.000000 0.000000 0.000000 0.000000 2.958283 1.858612 0.311689 -3.651926 2.321535 -1.510794 2.302213 36.408418 -10.530102 0.000000 0.000000 0.000000 -14.066534 19.380104 -3.013217 3.647938 -30.868044 -2.838536 29.546959 27.569299 -17.339944 0.000000 0.000000 0.000000
-4.554138 87.916019 375.379853 -1.489384 -5.446850 2.291627 -0.197835 -0.521656 -2.423626 0.954272 2.027327 -0.038267 -26.262928 9.123516 -0.775679 0.000000 0.000000 0.000000 5.028763 -13.636543 1.615436 22.884880 66.405371 -18.953010 43.262213 13.218707 94.962635 -29.500257 35.466361 -97.528238 0.000000 0.000000 0.000000 0.000000 0.000000 0.000000 5.193149 12.941328 0.962140 0.693015 -20.697240 -0.094093 1.105543 6.641552 0.457537 -9.473713 21.422281 -1.776883 0.000000 0.000000 0.000000 0.000000 0.000000 0.000000 3.798763 8.052490 -2.072365 -1.528229 1.541857 -0.788706 8.034896 37.427307 -17.827222 0.000000 0.000000 0.000000 -8.599591 28.120773 -4.508242 -1.996284 -35.275129 -5.648400 53.813819 17.684484 -34.591045 0.000000 0.000000 0.000000
